<svg xmlns="http://www.w3.org/2000/svg" xmlns:xlink="http://www.w3.org/1999/xlink" version="1.1" viewBox="0 0 3902 2639" style="background: #111111"><defs joint-selector="defs"></defs><g joint-selector="layers"  transform="matrix(1,0,0,1,0,0)"><g ></g><g ><!--z-index:1--><!--z-index:2--><!--z-index:3--><!--z-index:4--><!--z-index:5--><!--z-index:6--><!--z-index:7--><!--z-index:8--><!--z-index:9--><!--z-index:10--><!--z-index:11--><!--z-index:12--><!--z-index:13--><!--z-index:14--><!--z-index:15--><!--z-index:16--><!--z-index:17--><!--z-index:18--><!--z-index:19--><!--z-index:20--><!--z-index:21--><!--z-index:22--><!--z-index:23--><!--z-index:24--><!--z-index:25--><!--z-index:26--><!--z-index:27--><!--z-index:28--><!--z-index:29--><!--z-index:30--><!--z-index:31--><!--z-index:32--><g   id="j_134"  transform="translate(20,2595)"><g id="v-1576"><text  id="v-1577" font-size="24px" xml:space="preserve" y="0.8em" font-weight="normal" text-anchor="start" fill="#cccccc" pointer-events="none" display="block" font-family="Open Sans, Tahoma, Arial"><tspan dy="0" >martes, 21 de abril de 2026, 21:23 hora estándar de Perú</tspan></text></g></g><!--z-index:33--><g   id="j_133"  transform="translate(20,2549)"><g id="v-1574"><text  id="v-1575" font-size="36px" xml:space="preserve" y="0.8em" font-weight="normal" text-anchor="start" fill="#cccccc" pointer-events="none" display="block" font-family="Open Sans, Tahoma, Arial"><tspan dy="0" >Component View: SPOTGO - PAYMENT MANAGEMENT</tspan></text></g></g><!--z-index:34--><g   id="j_135"  transform="translate(2501,1399)" style=""><g  id="v-1578" style="opacity: 1;"><rect  id="v-1579" rx="20" ry="20" stroke-width="2" pointer-events="visiblePainted" fill="#f2e85a" stroke="#dad151" stroke-dasharray="" width="450" height="300"></rect><text  id="v-1580" font-size="33.599999999999994px" xml:space="preserve" y="101.30000000000001" font-weight="bold" text-anchor="middle" pointer-events="visible" font-family="Open Sans, Tahoma, Arial" fill="#ffffff" dominant-baseline="hanging" transform="matrix(1,0,0,1,225,0)"><tspan dy="0" >STRIPE</tspan></text><text  id="v-1581" font-size="16.799999999999997px" xml:space="preserve" y="142.9" text-anchor="middle" font-family="Open Sans, Tahoma, Arial" fill="#ffffff" dominant-baseline="hanging" transform="matrix(1,0,0,1,225,0)" style="display: block;"><tspan dy="0" >[Software System]</tspan></text><text  id="v-1582" font-size="24px" xml:space="preserve" y="174.7" text-anchor="middle" font-family="Open Sans, Tahoma, Arial" fill="#ffffff" dominant-baseline="hanging" transform="matrix(1,0,0,1,225,0)" style="display: block;"><tspan dy="0" >Pasarela de pagos</tspan></text><g  id="v-1583" color="#ffffff" transform="matrix(1,0,0,1,222.5,268)" display="none"><g ></g><g ></g><g ></g><g ></g></g><image  id="v-1584"></image></g></g><!--z-index:35--><g   id="j_136"  transform="translate(3251,1399)" style=""><g  id="v-1588" style="opacity: 1;"><rect  id="v-1589" rx="20" ry="20" stroke-width="2" pointer-events="visiblePainted" fill="#f2e85a" stroke="#dad151" stroke-dasharray="" width="450" height="300"></rect><text  id="v-1590" font-size="33.599999999999994px" xml:space="preserve" y="86.9" font-weight="bold" text-anchor="middle" pointer-events="visible" font-family="Open Sans, Tahoma, Arial" fill="#ffffff" dominant-baseline="hanging" transform="matrix(1,0,0,1,225,0)"><tspan dy="0" >API FACTURACION</tspan></text><text  id="v-1591" font-size="16.799999999999997px" xml:space="preserve" y="128.5" text-anchor="middle" font-family="Open Sans, Tahoma, Arial" fill="#ffffff" dominant-baseline="hanging" transform="matrix(1,0,0,1,225,0)" style="display: block;"><tspan dy="0" >[Software System]</tspan></text><text  id="v-1592" font-size="24px" xml:space="preserve" y="160.3" text-anchor="middle" font-family="Open Sans, Tahoma, Arial" fill="#ffffff" dominant-baseline="hanging" transform="matrix(1,0,0,1,225,0)" style="display: block;"><tspan dy="0" >Sistema de facturación electrónica</tspan><tspan dy="1.2em" x="0" >(ej. SUNAT)</tspan></text><g  id="v-1593" color="#ffffff" transform="matrix(1,0,0,1,222.5,268)" display="none"><g ></g><g ></g><g ></g><g ></g></g><image  id="v-1594"></image></g></g><!--z-index:36--><g   id="j_139"  transform="translate(199,159)" style=""><g id="v-1607"><rect  id="v-1608" width="2030" height="2239" rx="20" ry="20" stroke-width="2" pointer-events="none" stroke="#0f5eaa" fill="#111111" stroke-dasharray=""></rect><text  id="v-1609" font-size="33.599999999999994px" xml:space="preserve" y="2200" font-weight="bold" text-anchor="start" pointer-events="visible" font-family="Open Sans, Tahoma, Arial" fill="#1168bd" transform="matrix(1,0,0,1,15,0)"><tspan dy="0" >SPOTGO</tspan></text><text  id="v-1610" font-size="16.799999999999997px" xml:space="preserve" y="2224" font-weight="normal" text-anchor="start" pointer-events="visible" font-family="Open Sans, Tahoma, Arial" fill="#1168bd" transform="matrix(1,0,0,1,15,0)"><tspan dy="0" >[Software System]</tspan></text><image  id="v-1611" pointer-events="visible"></image></g></g><!--z-index:37--><g   id="j_138"  transform="translate(219,179)" style=""><g id="v-1602"><rect  id="v-1603" width="1990" height="1619" rx="20" ry="20" stroke-width="2" pointer-events="none" stroke="#3c7fc0" fill="#111111" stroke-dasharray=""></rect><text  id="v-1604" font-size="33.599999999999994px" xml:space="preserve" y="1580" font-weight="bold" text-anchor="start" pointer-events="visible" font-family="Open Sans, Tahoma, Arial" fill="#438dd5" transform="matrix(1,0,0,1,15,0)"><tspan dy="0" >PAYMENT MANAGEMENT</tspan></text><text  id="v-1605" font-size="16.799999999999997px" xml:space="preserve" y="1604" font-weight="normal" text-anchor="start" pointer-events="visible" font-family="Open Sans, Tahoma, Arial" fill="#438dd5" transform="matrix(1,0,0,1,15,0)"><tspan dy="0" >[Container]</tspan></text><image  id="v-1606" pointer-events="visible"></image></g></g><!--z-index:38--><g   id="j_144"  transform="translate(989,1999)" style=""><g  id="v-1661" style="opacity: 1;"><path  d="M 0,30 a 225,30 0,0,0 450 0 a 225,30 0,0,0 -450 0 l 0,240 a 225,30 0,0,0 450 0 l 0,-240" id="v-1662" stroke-width="2" pointer-events="visiblePainted" fill="#03fca9" stroke="#03e398" stroke-dasharray=""></path><rect  id="v-1663" stroke-width="0" pointer-events="visiblePainted" fill="none" stroke="none" width="450" height="270" x="0" y="30"></rect><text  id="v-1664" font-size="33.599999999999994px" xml:space="preserve" y="116.30000000000001" font-weight="bold" text-anchor="middle" pointer-events="visible" font-family="Open Sans, Tahoma, Arial" fill="#ffffff" dominant-baseline="hanging" transform="matrix(1,0,0,1,225,0)"><tspan dy="0" >DATABASE</tspan></text><text  id="v-1665" font-size="16.799999999999997px" xml:space="preserve" y="157.9" text-anchor="middle" font-family="Open Sans, Tahoma, Arial" fill="#ffffff" dominant-baseline="hanging" transform="matrix(1,0,0,1,225,0)" style="display: block;"><tspan dy="0" >[Container: PostgreSQL]</tspan></text><text  id="v-1666" font-size="24px" xml:space="preserve" y="189.7" text-anchor="middle" font-family="Open Sans, Tahoma, Arial" fill="#ffffff" dominant-baseline="hanging" transform="matrix(1,0,0,1,225,0)" style="display: block;"><tspan dy="0" >Almacenamiento centralizado</tspan></text><g  id="v-1667" font-weight="normal" text-anchor="middle" color="#ffffff" transform="matrix(1,0,0,1,222.5,268)" display="none"><g ></g><g ></g><g ></g><g ></g></g><image  id="v-1668"></image></g></g><!--z-index:39--><g   id="j_137"  transform="translate(989,199)" style=""><g  id="v-1595" style="opacity: 1;"><rect  id="v-1596" rx="20" ry="20" stroke-width="2" pointer-events="visiblePainted" fill="#85bbf0" stroke="#78a8d8" stroke-dasharray="" width="450" height="300"></rect><text  id="v-1597" font-size="33.599999999999994px" xml:space="preserve" y="101.30000000000001" font-weight="bold" text-anchor="middle" pointer-events="visible" font-family="Open Sans, Tahoma, Arial" fill="#000000" dominant-baseline="hanging" transform="matrix(1,0,0,1,225,0)"><tspan dy="0" >CONTROLLER</tspan></text><text  id="v-1598" font-size="16.799999999999997px" xml:space="preserve" y="142.9" text-anchor="middle" font-family="Open Sans, Tahoma, Arial" fill="#000000" dominant-baseline="hanging" transform="matrix(1,0,0,1,225,0)" style="display: block;"><tspan dy="0" >[Component]</tspan></text><text  id="v-1599" font-size="24px" xml:space="preserve" y="174.7" text-anchor="middle" font-family="Open Sans, Tahoma, Arial" fill="#000000" dominant-baseline="hanging" transform="matrix(1,0,0,1,225,0)" style="display: block;"><tspan dy="0" >Enruta flujos de pago</tspan></text><g  id="v-1600" color="#000000" transform="matrix(1,0,0,1,222.5,268)" display="none"><g ></g><g ></g><g ></g><g ></g></g><image  id="v-1601"></image></g></g><!--z-index:40--><g   id="j_140"  transform="translate(239,799)" style=""><g  id="v-1618" style="opacity: 1;"><rect  id="v-1619" rx="20" ry="20" stroke-width="2" pointer-events="visiblePainted" fill="#85bbf0" stroke="#78a8d8" stroke-dasharray="" width="450" height="300"></rect><text  id="v-1620" font-size="33.599999999999994px" xml:space="preserve" y="86.9" font-weight="bold" text-anchor="middle" pointer-events="visible" font-family="Open Sans, Tahoma, Arial" fill="#000000" dominant-baseline="hanging" transform="matrix(1,0,0,1,225,0)"><tspan dy="0" >PROCESADOR DE PAGOS</tspan></text><text  id="v-1621" font-size="16.799999999999997px" xml:space="preserve" y="128.5" text-anchor="middle" font-family="Open Sans, Tahoma, Arial" fill="#000000" dominant-baseline="hanging" transform="matrix(1,0,0,1,225,0)" style="display: block;"><tspan dy="0" >[Component]</tspan></text><text  id="v-1622" font-size="24px" xml:space="preserve" y="160.3" text-anchor="middle" font-family="Open Sans, Tahoma, Arial" fill="#000000" dominant-baseline="hanging" transform="matrix(1,0,0,1,225,0)" style="display: block;"><tspan dy="0" >Maneja pagos por horas de</tspan><tspan dy="1.2em" x="0" >clientes</tspan></text><g  id="v-1623" color="#000000" transform="matrix(1,0,0,1,222.5,268)" display="none"><g ></g><g ></g><g ></g><g ></g></g><image  id="v-1624"></image></g></g><!--z-index:41--><g   id="j_141"  transform="translate(989,799)" style=""><g  id="v-1631" style="opacity: 1;"><rect  id="v-1632" rx="20" ry="20" stroke-width="2" pointer-events="visiblePainted" fill="#85bbf0" stroke="#78a8d8" stroke-dasharray="" width="450" height="300"></rect><text  id="v-1633" font-size="33.599999999999994px" xml:space="preserve" y="66.74000000000001" font-weight="bold" text-anchor="middle" pointer-events="visible" font-family="Open Sans, Tahoma, Arial" fill="#000000" dominant-baseline="hanging" transform="matrix(1,0,0,1,225,0)"><tspan dy="0" >GESTOR DE</tspan><tspan dy="1.2em" x="0" >SUSCRIPCIONES</tspan></text><text  id="v-1634" font-size="16.799999999999997px" xml:space="preserve" y="148.66" text-anchor="middle" font-family="Open Sans, Tahoma, Arial" fill="#000000" dominant-baseline="hanging" transform="matrix(1,0,0,1,225,0)" style="display: block;"><tspan dy="0" >[Component]</tspan></text><text  id="v-1635" font-size="24px" xml:space="preserve" y="180.45999999999998" text-anchor="middle" font-family="Open Sans, Tahoma, Arial" fill="#000000" dominant-baseline="hanging" transform="matrix(1,0,0,1,225,0)" style="display: block;"><tspan dy="0" >Maneja mensualidades y</tspan><tspan dy="1.2em" x="0" >suscripciones B2B</tspan></text><g  id="v-1636" color="#000000" transform="matrix(1,0,0,1,222.5,268)" display="none"><g ></g><g ></g><g ></g><g ></g></g><image  id="v-1637"></image></g></g><!--z-index:42--><g   id="j_142"  transform="translate(1739,799)" style=""><g  id="v-1644" style="opacity: 1;"><rect  id="v-1645" rx="20" ry="20" stroke-width="2" pointer-events="visiblePainted" fill="#85bbf0" stroke="#78a8d8" stroke-dasharray="" width="450" height="300"></rect><text  id="v-1646" font-size="33.599999999999994px" xml:space="preserve" y="66.74000000000001" font-weight="bold" text-anchor="middle" pointer-events="visible" font-family="Open Sans, Tahoma, Arial" fill="#000000" dominant-baseline="hanging" transform="matrix(1,0,0,1,225,0)"><tspan dy="0" >MOTOR DE</tspan><tspan dy="1.2em" x="0" >FACTURACION</tspan></text><text  id="v-1647" font-size="16.799999999999997px" xml:space="preserve" y="148.66" text-anchor="middle" font-family="Open Sans, Tahoma, Arial" fill="#000000" dominant-baseline="hanging" transform="matrix(1,0,0,1,225,0)" style="display: block;"><tspan dy="0" >[Component]</tspan></text><text  id="v-1648" font-size="24px" xml:space="preserve" y="180.45999999999998" text-anchor="middle" font-family="Open Sans, Tahoma, Arial" fill="#000000" dominant-baseline="hanging" transform="matrix(1,0,0,1,225,0)" style="display: block;"><tspan dy="0" >Genera comprobantes</tspan><tspan dy="1.2em" x="0" >electrónicos</tspan></text><g  id="v-1649" color="#000000" transform="matrix(1,0,0,1,222.5,268)" display="none"><g ></g><g ></g><g ></g><g ></g></g><image  id="v-1650"></image></g></g><!--z-index:43--><g   id="j_143"  transform="translate(989,1399)" style=""><g  id="v-1651" style="opacity: 1;"><rect  id="v-1652" rx="20" ry="20" stroke-width="2" pointer-events="visiblePainted" fill="#85bbf0" stroke="#78a8d8" stroke-dasharray="" width="450" height="300"></rect><text  id="v-1653" font-size="33.599999999999994px" xml:space="preserve" y="101.30000000000001" font-weight="bold" text-anchor="middle" pointer-events="visible" font-family="Open Sans, Tahoma, Arial" fill="#000000" dominant-baseline="hanging" transform="matrix(1,0,0,1,225,0)"><tspan dy="0" >CONECTOR DB</tspan></text><text  id="v-1654" font-size="16.799999999999997px" xml:space="preserve" y="142.9" text-anchor="middle" font-family="Open Sans, Tahoma, Arial" fill="#000000" dominant-baseline="hanging" transform="matrix(1,0,0,1,225,0)" style="display: block;"><tspan dy="0" >[Component]</tspan></text><text  id="v-1655" font-size="24px" xml:space="preserve" y="174.7" text-anchor="middle" font-family="Open Sans, Tahoma, Arial" fill="#000000" dominant-baseline="hanging" transform="matrix(1,0,0,1,225,0)" style="display: block;"><tspan dy="0" >Capa de persistencia</tspan></text><g  id="v-1656" color="#000000" transform="matrix(1,0,0,1,222.5,268)" display="none"><g ></g><g ></g><g ></g><g ></g></g><image  id="v-1657"></image></g></g><!--z-index:44--><g   id="j_145" ><path  stroke="#cccccc" d="M 1027 499 L 652 799" id="v-1678" stroke-width="2" stroke-dasharray="8 8" fill="none" style="opacity: 1;"></path><path  fill="black" stroke="black" d="M 0 0 0 0" transform="matrix(-0.7808688416748546,0.6246950072646418,-0.6246950072646418,-0.7808688416748546,1026.5,499)"></path><path  fill="#cccccc" stroke="#cccccc" d="M 20 0 L 0 10 L 20 20 z" id="v-1680" transform="matrix(0.7808686753084834,-0.624695215222571,0.624695215222571,0.7808686753084834,645.253076915002,791.1913171569533)" style="opacity: 1;"></path><path  d="M 1027 499 L 652 799" id="v-1679" fill="none" style="cursor: auto; pointer-events: visiblepainted;"></path><g ><g id="v-1672"  label-idx="0" cursor="move" transform="matrix(1,0,0,1,839.5,649)" style="cursor: default; opacity: 1;"><rect joint-selector="rect" id="v-1675" fill="#111111" rx="3" ry="3" pointer-events="none" width="96.32687377929688" height="35.8289794921875" transform="matrix(1,0,0,1,-48.1,-17.9)"></rect><text joint-selector="text" id="v-1674" font-size="24px" xml:space="preserve" y="0.8em" fill="#cccccc" text-anchor="middle" pointer-events="none" font-family="Open Sans, Tahoma, Arial" font-weight="normal" transform="matrix(1,0,0,1,0,-10.2)"><tspan dy="0" >Delega a</tspan></text></g><g id="v-1673"  label-idx="1" cursor="move" transform="matrix(1,0,0,1,829.5,661)" style="cursor: default; opacity: 1;"><rect joint-selector="rect" id="v-1677" fill="#ffffff" rx="3" ry="3"  width="0" height="0" transform="matrix(1,0,0,1,0,0)" display="none"></rect><text joint-selector="text" id="v-1676" fill="#000000" font-size="14" text-anchor="middle" pointer-events="none"></text></g></g><g  display="none" style="display: none;"></g><g  id="v-1682" display="none"><g  id="v-1670"><path  end="source" d="M 26 0 L 0 13 L 26 26 z"></path></g><g  id="v-1671"><path  end="target" d="M 26 0 L 0 13 L 26 26 z"></path></g></g><g  id="v-1681" display="none"><g  id="v-1669" transform="translate(995.7652476222788, 523.987801902177) "><g  event="remove"><circle r="11"></circle><path transform="scale(.8) translate(-16, -16)" d="M24.778,21.419 19.276,15.917 24.777,10.415 21.949,7.585 16.447,13.087 10.945,7.585 8.117,10.415 13.618,15.917 8.116,21.419 10.946,24.248 16.447,18.746 21.948,24.248z"></path><title>Remove link.</title></g><g  event="link:options"><circle r="11" transform="translate(25)"></circle><path fill="white" transform="scale(.55) translate(29, -16)" d="M31.229,17.736c0.064-0.571,0.104-1.148,0.104-1.736s-0.04-1.166-0.104-1.737l-4.377-1.557c-0.218-0.716-0.504-1.401-0.851-2.05l1.993-4.192c-0.725-0.91-1.549-1.734-2.458-2.459l-4.193,1.994c-0.647-0.347-1.334-0.632-2.049-0.849l-1.558-4.378C17.165,0.708,16.588,0.667,16,0.667s-1.166,0.041-1.737,0.105L12.707,5.15c-0.716,0.217-1.401,0.502-2.05,0.849L6.464,4.005C5.554,4.73,4.73,5.554,4.005,6.464l1.994,4.192c-0.347,0.648-0.632,1.334-0.849,2.05l-4.378,1.557C0.708,14.834,0.667,15.412,0.667,16s0.041,1.165,0.105,1.736l4.378,1.558c0.217,0.715,0.502,1.401,0.849,2.049l-1.994,4.193c0.725,0.909,1.549,1.733,2.459,2.458l4.192-1.993c0.648,0.347,1.334,0.633,2.05,0.851l1.557,4.377c0.571,0.064,1.148,0.104,1.737,0.104c0.588,0,1.165-0.04,1.736-0.104l1.558-4.377c0.715-0.218,1.399-0.504,2.049-0.851l4.193,1.993c0.909-0.725,1.733-1.549,2.458-2.458l-1.993-4.193c0.347-0.647,0.633-1.334,0.851-2.049L31.229,17.736zM16,20.871c-2.69,0-4.872-2.182-4.872-4.871c0-2.69,2.182-4.872,4.872-4.872c2.689,0,4.871,2.182,4.871,4.872C20.871,18.689,18.689,20.871,16,20.871z"></path><title>Link options.</title></g></g></g></g><!--z-index:45--><g   id="j_146" ><path  stroke="#cccccc" d="M 1214 499 L 1214 799" id="v-1692" stroke-width="2" stroke-dasharray="8 8" fill="none" style="opacity: 1;"></path><path  fill="black" stroke="black" d="M 0 0 0 0" transform="matrix(6.123233995736766e-17,1,-1,6.123233995736766e-17,1214,499)"></path><path  fill="#cccccc" stroke="#cccccc" d="M 20 0 L 0 10 L 20 20 z" id="v-1694" transform="matrix(-1.8369701987210297e-16,-1,1,-1.8369701987210297e-16,1204,799)" style="opacity: 1;"></path><path  d="M 1214 499 L 1214 799" id="v-1693" fill="none" style="cursor: auto; pointer-events: visiblepainted;"></path><g ><g id="v-1686"  label-idx="0" cursor="move" transform="matrix(1,0,0,1,1214,649)" style="cursor: default; opacity: 1;"><rect joint-selector="rect" id="v-1689" fill="#111111" rx="3" ry="3" pointer-events="none" width="96.32687377929688" height="35.8289794921875" transform="matrix(1,0,0,1,-48.1,-17.9)"></rect><text joint-selector="text" id="v-1688" font-size="24px" xml:space="preserve" y="0.8em" fill="#cccccc" text-anchor="middle" pointer-events="none" font-family="Open Sans, Tahoma, Arial" font-weight="normal" transform="matrix(1,0,0,1,0,-10.2)"><tspan dy="0" >Delega a</tspan></text></g><g id="v-1687"  label-idx="1" cursor="move" transform="matrix(1,0,0,1,1204,661)" style="cursor: default; opacity: 1;"><rect joint-selector="rect" id="v-1691" fill="#ffffff" rx="3" ry="3"  width="0" height="0" transform="matrix(1,0,0,1,0,0)" display="none"></rect><text joint-selector="text" id="v-1690" fill="#000000" font-size="14" text-anchor="middle" pointer-events="none"></text></g></g><g  display="none" style="display: none;"></g><g  id="v-1696" display="none"><g  id="v-1684"><path  end="source" d="M 26 0 L 0 13 L 26 26 z"></path></g><g  id="v-1685"><path  end="target" d="M 26 0 L 0 13 L 26 26 z"></path></g></g><g  id="v-1695" display="none"><g  id="v-1683" transform="translate(1214, 539) "><g  event="remove"><circle r="11"></circle><path transform="scale(.8) translate(-16, -16)" d="M24.778,21.419 19.276,15.917 24.777,10.415 21.949,7.585 16.447,13.087 10.945,7.585 8.117,10.415 13.618,15.917 8.116,21.419 10.946,24.248 16.447,18.746 21.948,24.248z"></path><title>Remove link.</title></g><g  event="link:options"><circle r="11" transform="translate(25)"></circle><path fill="white" transform="scale(.55) translate(29, -16)" d="M31.229,17.736c0.064-0.571,0.104-1.148,0.104-1.736s-0.04-1.166-0.104-1.737l-4.377-1.557c-0.218-0.716-0.504-1.401-0.851-2.05l1.993-4.192c-0.725-0.91-1.549-1.734-2.458-2.459l-4.193,1.994c-0.647-0.347-1.334-0.632-2.049-0.849l-1.558-4.378C17.165,0.708,16.588,0.667,16,0.667s-1.166,0.041-1.737,0.105L12.707,5.15c-0.716,0.217-1.401,0.502-2.05,0.849L6.464,4.005C5.554,4.73,4.73,5.554,4.005,6.464l1.994,4.192c-0.347,0.648-0.632,1.334-0.849,2.05l-4.378,1.557C0.708,14.834,0.667,15.412,0.667,16s0.041,1.165,0.105,1.736l4.378,1.558c0.217,0.715,0.502,1.401,0.849,2.049l-1.994,4.193c0.725,0.909,1.549,1.733,2.459,2.458l4.192-1.993c0.648,0.347,1.334,0.633,2.05,0.851l1.557,4.377c0.571,0.064,1.148,0.104,1.737,0.104c0.588,0,1.165-0.04,1.736-0.104l1.558-4.377c0.715-0.218,1.399-0.504,2.049-0.851l4.193,1.993c0.909-0.725,1.733-1.549,2.458-2.458l-1.993-4.193c0.347-0.647,0.633-1.334,0.851-2.049L31.229,17.736zM16,20.871c-2.69,0-4.872-2.182-4.872-4.871c0-2.69,2.182-4.872,4.872-4.872c2.689,0,4.871,2.182,4.871,4.872C20.871,18.689,18.689,20.871,16,20.871z"></path><title>Link options.</title></g></g></g></g><!--z-index:46--><g   id="j_147" ><path  stroke="#cccccc" d="M 1402 499 L 1777 799" id="v-1706" stroke-width="2" stroke-dasharray="8 8" fill="none" style="opacity: 1;"></path><path  fill="black" stroke="black" d="M 0 0 0 0" transform="matrix(0.7808688000832672,0.624695059254128,-0.624695059254128,0.7808688000832672,1401.5,499)"></path><path  fill="#cccccc" stroke="#cccccc" d="M 20 0 L 0 10 L 20 20 z" id="v-1708" transform="matrix(-0.7808688416748548,-0.6246950072646416,0.6246950072646416,-0.7808688416748548,1770.2530225237897,806.8086902472074)" style="opacity: 1;"></path><path  d="M 1402 499 L 1777 799" id="v-1707" fill="none" style="cursor: auto; pointer-events: visiblepainted;"></path><g ><g id="v-1700"  label-idx="0" cursor="move" transform="matrix(1,0,0,1,1589.5,649)" style="cursor: default; opacity: 1;"><rect joint-selector="rect" id="v-1703" fill="#111111" rx="3" ry="3" pointer-events="none" width="96.32687377929688" height="35.8289794921875" transform="matrix(1,0,0,1,-48.1,-17.9)"></rect><text joint-selector="text" id="v-1702" font-size="24px" xml:space="preserve" y="0.8em" fill="#cccccc" text-anchor="middle" pointer-events="none" font-family="Open Sans, Tahoma, Arial" font-weight="normal" transform="matrix(1,0,0,1,0,-10.2)"><tspan dy="0" >Delega a</tspan></text></g><g id="v-1701"  label-idx="1" cursor="move" transform="matrix(1,0,0,1,1579.5,661)" style="cursor: default; opacity: 1;"><rect joint-selector="rect" id="v-1705" fill="#ffffff" rx="3" ry="3"  width="0" height="0" transform="matrix(1,0,0,1,0,0)" display="none"></rect><text joint-selector="text" id="v-1704" fill="#000000" font-size="14" text-anchor="middle" pointer-events="none"></text></g></g><g  display="none" style="display: none;"></g><g  id="v-1710" display="none"><g  id="v-1698"><path  end="source" d="M 26 0 L 0 13 L 26 26 z"></path></g><g  id="v-1699"><path  end="target" d="M 26 0 L 0 13 L 26 26 z"></path></g></g><g  id="v-1709" display="none"><g  id="v-1697" transform="translate(1433.2347523777214, 523.987801902177) "><g  event="remove"><circle r="11"></circle><path transform="scale(.8) translate(-16, -16)" d="M24.778,21.419 19.276,15.917 24.777,10.415 21.949,7.585 16.447,13.087 10.945,7.585 8.117,10.415 13.618,15.917 8.116,21.419 10.946,24.248 16.447,18.746 21.948,24.248z"></path><title>Remove link.</title></g><g  event="link:options"><circle r="11" transform="translate(25)"></circle><path fill="white" transform="scale(.55) translate(29, -16)" d="M31.229,17.736c0.064-0.571,0.104-1.148,0.104-1.736s-0.04-1.166-0.104-1.737l-4.377-1.557c-0.218-0.716-0.504-1.401-0.851-2.05l1.993-4.192c-0.725-0.91-1.549-1.734-2.458-2.459l-4.193,1.994c-0.647-0.347-1.334-0.632-2.049-0.849l-1.558-4.378C17.165,0.708,16.588,0.667,16,0.667s-1.166,0.041-1.737,0.105L12.707,5.15c-0.716,0.217-1.401,0.502-2.05,0.849L6.464,4.005C5.554,4.73,4.73,5.554,4.005,6.464l1.994,4.192c-0.347,0.648-0.632,1.334-0.849,2.05l-4.378,1.557C0.708,14.834,0.667,15.412,0.667,16s0.041,1.165,0.105,1.736l4.378,1.558c0.217,0.715,0.502,1.401,0.849,2.049l-1.994,4.193c0.725,0.909,1.549,1.733,2.459,2.458l4.192-1.993c0.648,0.347,1.334,0.633,2.05,0.851l1.557,4.377c0.571,0.064,1.148,0.104,1.737,0.104c0.588,0,1.165-0.04,1.736-0.104l1.558-4.377c0.715-0.218,1.399-0.504,2.049-0.851l4.193,1.993c0.909-0.725,1.733-1.549,2.458-2.458l-1.993-4.193c0.347-0.647,0.633-1.334,0.851-2.049L31.229,17.736zM16,20.871c-2.69,0-4.872-2.182-4.872-4.871c0-2.69,2.182-4.872,4.872-4.872c2.689,0,4.871,2.182,4.871,4.872C20.871,18.689,18.689,20.871,16,20.871z"></path><title>Link options.</title></g></g></g></g><!--z-index:47--><g   id="j_148" ><path  stroke="#cccccc" d="M 652 1099 L 1027 1399" id="v-1720" stroke-width="2" stroke-dasharray="8 8" fill="none" style="opacity: 1;"></path><path  fill="black" stroke="black" d="M 0 0 0 0" transform="matrix(0.7808688000832672,0.624695059254128,-0.624695059254128,0.7808688000832672,651.5,1099)"></path><path  fill="#cccccc" stroke="#cccccc" d="M 20 0 L 0 10 L 20 20 z" id="v-1722" transform="matrix(-0.7808688416748548,-0.6246950072646416,0.6246950072646416,-0.7808688416748548,1020.2530225237896,1406.8086902472076)" style="opacity: 1;"></path><path  d="M 652 1099 L 1027 1399" id="v-1721" fill="none" style="cursor: auto; pointer-events: visiblepainted;"></path><g ><g id="v-1714"  label-idx="0" cursor="move" transform="matrix(1,0,0,1,839.5,1249)" style="cursor: default; opacity: 1;"><rect joint-selector="rect" id="v-1717" fill="#111111" rx="3" ry="3" pointer-events="none" width="42.32194137573242" height="35.8289794921875" transform="matrix(1,0,0,1,-21.1,-17.9)"></rect><text joint-selector="text" id="v-1716" font-size="24px" xml:space="preserve" y="0.8em" fill="#cccccc" text-anchor="middle" pointer-events="none" font-family="Open Sans, Tahoma, Arial" font-weight="normal" transform="matrix(1,0,0,1,0,-10.2)"><tspan dy="0" >Usa</tspan></text></g><g id="v-1715"  label-idx="1" cursor="move" transform="matrix(1,0,0,1,829.5,1261)" style="cursor: default; opacity: 1;"><rect joint-selector="rect" id="v-1719" fill="#ffffff" rx="3" ry="3"  width="0" height="0" transform="matrix(1,0,0,1,0,0)" display="none"></rect><text joint-selector="text" id="v-1718" fill="#000000" font-size="14" text-anchor="middle" pointer-events="none"></text></g></g><g  display="none" style="display: none;"></g><g  id="v-1724" display="none"><g  id="v-1712"><path  end="source" d="M 26 0 L 0 13 L 26 26 z"></path></g><g  id="v-1713"><path  end="target" d="M 26 0 L 0 13 L 26 26 z"></path></g></g><g  id="v-1723" display="none"><g  id="v-1711" transform="translate(683.2347523777213, 1123.987801902177) "><g  event="remove"><circle r="11"></circle><path transform="scale(.8) translate(-16, -16)" d="M24.778,21.419 19.276,15.917 24.777,10.415 21.949,7.585 16.447,13.087 10.945,7.585 8.117,10.415 13.618,15.917 8.116,21.419 10.946,24.248 16.447,18.746 21.948,24.248z"></path><title>Remove link.</title></g><g  event="link:options"><circle r="11" transform="translate(25)"></circle><path fill="white" transform="scale(.55) translate(29, -16)" d="M31.229,17.736c0.064-0.571,0.104-1.148,0.104-1.736s-0.04-1.166-0.104-1.737l-4.377-1.557c-0.218-0.716-0.504-1.401-0.851-2.05l1.993-4.192c-0.725-0.91-1.549-1.734-2.458-2.459l-4.193,1.994c-0.647-0.347-1.334-0.632-2.049-0.849l-1.558-4.378C17.165,0.708,16.588,0.667,16,0.667s-1.166,0.041-1.737,0.105L12.707,5.15c-0.716,0.217-1.401,0.502-2.05,0.849L6.464,4.005C5.554,4.73,4.73,5.554,4.005,6.464l1.994,4.192c-0.347,0.648-0.632,1.334-0.849,2.05l-4.378,1.557C0.708,14.834,0.667,15.412,0.667,16s0.041,1.165,0.105,1.736l4.378,1.558c0.217,0.715,0.502,1.401,0.849,2.049l-1.994,4.193c0.725,0.909,1.549,1.733,2.459,2.458l4.192-1.993c0.648,0.347,1.334,0.633,2.05,0.851l1.557,4.377c0.571,0.064,1.148,0.104,1.737,0.104c0.588,0,1.165-0.04,1.736-0.104l1.558-4.377c0.715-0.218,1.399-0.504,2.049-0.851l4.193,1.993c0.909-0.725,1.733-1.549,2.458-2.458l-1.993-4.193c0.347-0.647,0.633-1.334,0.851-2.049L31.229,17.736zM16,20.871c-2.69,0-4.872-2.182-4.872-4.871c0-2.69,2.182-4.872,4.872-4.872c2.689,0,4.871,2.182,4.871,4.872C20.871,18.689,18.689,20.871,16,20.871z"></path><title>Link options.</title></g></g></g></g><!--z-index:48--><g   id="j_149" ><path  stroke="#cccccc" d="M 1214 1099 L 1214 1399" id="v-1734" stroke-width="2" stroke-dasharray="8 8" fill="none" style="opacity: 1;"></path><path  fill="black" stroke="black" d="M 0 0 0 0" transform="matrix(6.123233995736766e-17,1,-1,6.123233995736766e-17,1214,1099)"></path><path  fill="#cccccc" stroke="#cccccc" d="M 20 0 L 0 10 L 20 20 z" id="v-1736" transform="matrix(-1.8369701987210297e-16,-1,1,-1.8369701987210297e-16,1204,1399)" style="opacity: 1;"></path><path  d="M 1214 1099 L 1214 1399" id="v-1735" fill="none" style="cursor: auto; pointer-events: visiblepainted;"></path><g ><g id="v-1728"  label-idx="0" cursor="move" transform="matrix(1,0,0,1,1214,1249)" style="cursor: default; opacity: 1;"><rect joint-selector="rect" id="v-1731" fill="#111111" rx="3" ry="3" pointer-events="none" width="42.32194137573242" height="35.8289794921875" transform="matrix(1,0,0,1,-21.1,-17.9)"></rect><text joint-selector="text" id="v-1730" font-size="24px" xml:space="preserve" y="0.8em" fill="#cccccc" text-anchor="middle" pointer-events="none" font-family="Open Sans, Tahoma, Arial" font-weight="normal" transform="matrix(1,0,0,1,0,-10.2)"><tspan dy="0" >Usa</tspan></text></g><g id="v-1729"  label-idx="1" cursor="move" transform="matrix(1,0,0,1,1204,1261)" style="cursor: default; opacity: 1;"><rect joint-selector="rect" id="v-1733" fill="#ffffff" rx="3" ry="3"  width="0" height="0" transform="matrix(1,0,0,1,0,0)" display="none"></rect><text joint-selector="text" id="v-1732" fill="#000000" font-size="14" text-anchor="middle" pointer-events="none"></text></g></g><g  display="none" style="display: none;"></g><g  id="v-1738" display="none"><g  id="v-1726"><path  end="source" d="M 26 0 L 0 13 L 26 26 z"></path></g><g  id="v-1727"><path  end="target" d="M 26 0 L 0 13 L 26 26 z"></path></g></g><g  id="v-1737" display="none"><g  id="v-1725" transform="translate(1214, 1139) "><g  event="remove"><circle r="11"></circle><path transform="scale(.8) translate(-16, -16)" d="M24.778,21.419 19.276,15.917 24.777,10.415 21.949,7.585 16.447,13.087 10.945,7.585 8.117,10.415 13.618,15.917 8.116,21.419 10.946,24.248 16.447,18.746 21.948,24.248z"></path><title>Remove link.</title></g><g  event="link:options"><circle r="11" transform="translate(25)"></circle><path fill="white" transform="scale(.55) translate(29, -16)" d="M31.229,17.736c0.064-0.571,0.104-1.148,0.104-1.736s-0.04-1.166-0.104-1.737l-4.377-1.557c-0.218-0.716-0.504-1.401-0.851-2.05l1.993-4.192c-0.725-0.91-1.549-1.734-2.458-2.459l-4.193,1.994c-0.647-0.347-1.334-0.632-2.049-0.849l-1.558-4.378C17.165,0.708,16.588,0.667,16,0.667s-1.166,0.041-1.737,0.105L12.707,5.15c-0.716,0.217-1.401,0.502-2.05,0.849L6.464,4.005C5.554,4.73,4.73,5.554,4.005,6.464l1.994,4.192c-0.347,0.648-0.632,1.334-0.849,2.05l-4.378,1.557C0.708,14.834,0.667,15.412,0.667,16s0.041,1.165,0.105,1.736l4.378,1.558c0.217,0.715,0.502,1.401,0.849,2.049l-1.994,4.193c0.725,0.909,1.549,1.733,2.459,2.458l4.192-1.993c0.648,0.347,1.334,0.633,2.05,0.851l1.557,4.377c0.571,0.064,1.148,0.104,1.737,0.104c0.588,0,1.165-0.04,1.736-0.104l1.558-4.377c0.715-0.218,1.399-0.504,2.049-0.851l4.193,1.993c0.909-0.725,1.733-1.549,2.458-2.458l-1.993-4.193c0.347-0.647,0.633-1.334,0.851-2.049L31.229,17.736zM16,20.871c-2.69,0-4.872-2.182-4.872-4.871c0-2.69,2.182-4.872,4.872-4.872c2.689,0,4.871,2.182,4.871,4.872C20.871,18.689,18.689,20.871,16,20.871z"></path><title>Link options.</title></g></g></g></g><!--z-index:49--><g   id="j_150" ><path  stroke="#cccccc" d="M 1777 1099 L 1402 1399" id="v-1748" stroke-width="2" stroke-dasharray="8 8" fill="none" style="opacity: 1;"></path><path  fill="black" stroke="black" d="M 0 0 0 0" transform="matrix(-0.7808688416748546,0.6246950072646418,-0.6246950072646418,-0.7808688416748546,1776.5,1099)"></path><path  fill="#cccccc" stroke="#cccccc" d="M 20 0 L 0 10 L 20 20 z" id="v-1750" transform="matrix(0.7808686753084834,-0.624695215222571,0.624695215222571,0.7808686753084834,1395.2530769150019,1391.1913171569533)" style="opacity: 1;"></path><path  d="M 1777 1099 L 1402 1399" id="v-1749" fill="none" style="cursor: auto; pointer-events: visiblepainted;"></path><g ><g id="v-1742"  label-idx="0" cursor="move" transform="matrix(1,0,0,1,1589.5,1249)" style="cursor: default; opacity: 1;"><rect joint-selector="rect" id="v-1745" fill="#111111" rx="3" ry="3" pointer-events="none" width="42.32194137573242" height="35.8289794921875" transform="matrix(1,0,0,1,-21.1,-17.9)"></rect><text joint-selector="text" id="v-1744" font-size="24px" xml:space="preserve" y="0.8em" fill="#cccccc" text-anchor="middle" pointer-events="none" font-family="Open Sans, Tahoma, Arial" font-weight="normal" transform="matrix(1,0,0,1,0,-10.2)"><tspan dy="0" >Usa</tspan></text></g><g id="v-1743"  label-idx="1" cursor="move" transform="matrix(1,0,0,1,1579.5,1261)" style="cursor: default; opacity: 1;"><rect joint-selector="rect" id="v-1747" fill="#ffffff" rx="3" ry="3"  width="0" height="0" transform="matrix(1,0,0,1,0,0)" display="none"></rect><text joint-selector="text" id="v-1746" fill="#000000" font-size="14" text-anchor="middle" pointer-events="none"></text></g></g><g  display="none" style="display: none;"></g><g  id="v-1752" display="none"><g  id="v-1740"><path  end="source" d="M 26 0 L 0 13 L 26 26 z"></path></g><g  id="v-1741"><path  end="target" d="M 26 0 L 0 13 L 26 26 z"></path></g></g><g  id="v-1751" display="none"><g  id="v-1739" transform="translate(1745.765247622279, 1123.987801902177) "><g  event="remove"><circle r="11"></circle><path transform="scale(.8) translate(-16, -16)" d="M24.778,21.419 19.276,15.917 24.777,10.415 21.949,7.585 16.447,13.087 10.945,7.585 8.117,10.415 13.618,15.917 8.116,21.419 10.946,24.248 16.447,18.746 21.948,24.248z"></path><title>Remove link.</title></g><g  event="link:options"><circle r="11" transform="translate(25)"></circle><path fill="white" transform="scale(.55) translate(29, -16)" d="M31.229,17.736c0.064-0.571,0.104-1.148,0.104-1.736s-0.04-1.166-0.104-1.737l-4.377-1.557c-0.218-0.716-0.504-1.401-0.851-2.05l1.993-4.192c-0.725-0.91-1.549-1.734-2.458-2.459l-4.193,1.994c-0.647-0.347-1.334-0.632-2.049-0.849l-1.558-4.378C17.165,0.708,16.588,0.667,16,0.667s-1.166,0.041-1.737,0.105L12.707,5.15c-0.716,0.217-1.401,0.502-2.05,0.849L6.464,4.005C5.554,4.73,4.73,5.554,4.005,6.464l1.994,4.192c-0.347,0.648-0.632,1.334-0.849,2.05l-4.378,1.557C0.708,14.834,0.667,15.412,0.667,16s0.041,1.165,0.105,1.736l4.378,1.558c0.217,0.715,0.502,1.401,0.849,2.049l-1.994,4.193c0.725,0.909,1.549,1.733,2.459,2.458l4.192-1.993c0.648,0.347,1.334,0.633,2.05,0.851l1.557,4.377c0.571,0.064,1.148,0.104,1.737,0.104c0.588,0,1.165-0.04,1.736-0.104l1.558-4.377c0.715-0.218,1.399-0.504,2.049-0.851l4.193,1.993c0.909-0.725,1.733-1.549,2.458-2.458l-1.993-4.193c0.347-0.647,0.633-1.334,0.851-2.049L31.229,17.736zM16,20.871c-2.69,0-4.872-2.182-4.872-4.871c0-2.69,2.182-4.872,4.872-4.872c2.689,0,4.871,2.182,4.871,4.872C20.871,18.689,18.689,20.871,16,20.871z"></path><title>Link options.</title></g></g></g></g><!--z-index:50--><g   id="j_151" ><path  stroke="#cccccc" d="M 689 1039 L 830 1095 C 835.9999999999999 1097.6666666666665 842.3333333333333 1099.6666666666665 849 1101 L 2358 1397 C 2364.6666666666665 1398.3333333333333 2371 1400.3333333333333 2377 1403 L 2501 1455" id="v-1764" stroke-width="2" stroke-dasharray="8 8" fill="none" style="opacity: 1;"></path><path  fill="black" stroke="black" d="M 0 0 0 0" transform="matrix(0.9284766955435519,0.371390664708372,-0.371390664708372,0.9284766955435519,689,1039)"></path><path  fill="#cccccc" stroke="#cccccc" d="M 20 0 L 0 10 L 20 20 z" id="v-1766" transform="matrix(-0.9223036175584932,-0.38646608782468433,0.38646608782468433,-0.9223036175584932,2497.135230766088,1463.9530534991443)" style="opacity: 1;"></path><path  d="M 689 1039 L 830 1095 C 835.9999999999999 1097.6666666666665 842.3333333333333 1099.6666666666665 849 1101 L 2358 1397 C 2364.6666666666665 1398.3333333333333 2371 1400.3333333333333 2377 1403 L 2501 1455" id="v-1765" fill="none" style="cursor: auto; pointer-events: visiblepainted;"></path><g ><g id="v-1758"  label-idx="0" cursor="move" transform="matrix(1,0,0,1,1595.0355224609375,1247.339599609375)" style="cursor: default; opacity: 1;"><rect joint-selector="rect" id="v-1761" fill="#111111" rx="3" ry="3" pointer-events="none" width="98.3392333984375" height="35.8289794921875" transform="matrix(1,0,0,1,-49.1,-17.9)"></rect><text joint-selector="text" id="v-1760" font-size="24px" xml:space="preserve" y="0.8em" fill="#cccccc" text-anchor="middle" pointer-events="none" font-family="Open Sans, Tahoma, Arial" font-weight="normal" transform="matrix(1,0,0,1,0,-10.2)"><tspan dy="0" >Consulta</tspan></text></g><g id="v-1759"  label-idx="1" cursor="move" transform="matrix(1,0,0,1,1585.0355224609375,1259.339599609375)" style="cursor: default; opacity: 1;"><rect joint-selector="rect" id="v-1763" fill="#ffffff" rx="3" ry="3"  width="0" height="0" transform="matrix(1,0,0,1,0,0)" display="none"></rect><text joint-selector="text" id="v-1762" fill="#000000" font-size="14" text-anchor="middle" pointer-events="none"></text></g></g><g  display="none" style="display: none;"><g  transform="translate(839, 1099)" id="v-1754"><circle  idx="0" r="10"></circle><path  idx="0" d="M16,5.333c-7.732,0-14,4.701-14,10.5c0,1.982,0.741,3.833,2.016,5.414L2,25.667l5.613-1.441c2.339,1.317,5.237,2.107,8.387,2.107c7.732,0,14-4.701,14-10.5C30,10.034,23.732,5.333,16,5.333z" transform="translate(5, -33)"></path><path  idx="0" transform="scale(.8) translate(9.5, -37)" d="M24.778,21.419 19.276,15.917 24.777,10.415 21.949,7.585 16.447,13.087 10.945,7.585 8.117,10.415 13.618,15.917 8.116,21.419 10.946,24.248 16.447,18.746 21.948,24.248z"><title>Remove vertex.</title></path></g><g  transform="translate(2368, 1399)" id="v-1755"><circle  idx="1" r="10"></circle><path  idx="1" d="M16,5.333c-7.732,0-14,4.701-14,10.5c0,1.982,0.741,3.833,2.016,5.414L2,25.667l5.613-1.441c2.339,1.317,5.237,2.107,8.387,2.107c7.732,0,14-4.701,14-10.5C30,10.034,23.732,5.333,16,5.333z" transform="translate(5, -33)"></path><path  idx="1" transform="scale(.8) translate(9.5, -37)" d="M24.778,21.419 19.276,15.917 24.777,10.415 21.949,7.585 16.447,13.087 10.945,7.585 8.117,10.415 13.618,15.917 8.116,21.419 10.946,24.248 16.447,18.746 21.948,24.248z"><title>Remove vertex.</title></path></g></g><g  id="v-1768" display="none"><g  id="v-1756"><path  end="source" d="M 26 0 L 0 13 L 26 26 z"></path></g><g  id="v-1757"><path  end="target" d="M 26 0 L 0 13 L 26 26 z"></path></g></g><g  id="v-1767" display="none"><g  id="v-1753" transform="translate(726.1753225311058, 1053.7646671045527) "><g  event="remove"><circle r="11"></circle><path transform="scale(.8) translate(-16, -16)" d="M24.778,21.419 19.276,15.917 24.777,10.415 21.949,7.585 16.447,13.087 10.945,7.585 8.117,10.415 13.618,15.917 8.116,21.419 10.946,24.248 16.447,18.746 21.948,24.248z"></path><title>Remove link.</title></g><g  event="link:options"><circle r="11" transform="translate(25)"></circle><path fill="white" transform="scale(.55) translate(29, -16)" d="M31.229,17.736c0.064-0.571,0.104-1.148,0.104-1.736s-0.04-1.166-0.104-1.737l-4.377-1.557c-0.218-0.716-0.504-1.401-0.851-2.05l1.993-4.192c-0.725-0.91-1.549-1.734-2.458-2.459l-4.193,1.994c-0.647-0.347-1.334-0.632-2.049-0.849l-1.558-4.378C17.165,0.708,16.588,0.667,16,0.667s-1.166,0.041-1.737,0.105L12.707,5.15c-0.716,0.217-1.401,0.502-2.05,0.849L6.464,4.005C5.554,4.73,4.73,5.554,4.005,6.464l1.994,4.192c-0.347,0.648-0.632,1.334-0.849,2.05l-4.378,1.557C0.708,14.834,0.667,15.412,0.667,16s0.041,1.165,0.105,1.736l4.378,1.558c0.217,0.715,0.502,1.401,0.849,2.049l-1.994,4.193c0.725,0.909,1.549,1.733,2.459,2.458l4.192-1.993c0.648,0.347,1.334,0.633,2.05,0.851l1.557,4.377c0.571,0.064,1.148,0.104,1.737,0.104c0.588,0,1.165-0.04,1.736-0.104l1.558-4.377c0.715-0.218,1.399-0.504,2.049-0.851l4.193,1.993c0.909-0.725,1.733-1.549,2.458-2.458l-1.993-4.193c0.347-0.647,0.633-1.334,0.851-2.049L31.229,17.736zM16,20.871c-2.69,0-4.872-2.182-4.872-4.871c0-2.69,2.182-4.872,4.872-4.872c2.689,0,4.871,2.182,4.871,4.872C20.871,18.689,18.689,20.871,16,20.871z"></path><title>Link options.</title></g></g></g></g><!--z-index:51--><g   id="j_152" ><path  stroke="#cccccc" d="M 1439 1039 L 1580 1095 C 1586 1097.6666666666665 1592 1100.3333333333333 1598 1103 L 2359 1395 C 2365 1397.6666666666665 2371 1400.3333333333333 2377 1403 L 2501 1455" id="v-1780" stroke-width="2" stroke-dasharray="8 8" fill="none" style="opacity: 1;"></path><path  fill="black" stroke="black" d="M 0 0 0 0" transform="matrix(0.9284766955435519,0.371390664708372,-0.371390664708372,0.9284766955435519,1439,1039)"></path><path  fill="#cccccc" stroke="#cccccc" d="M 20 0 L 0 10 L 20 20 z" id="v-1782" transform="matrix(-0.9223036175584932,-0.38646608782468433,0.38646608782468433,-0.9223036175584932,2497.135230766088,1463.9530534991443)" style="opacity: 1;"></path><path  d="M 1439 1039 L 1580 1095 C 1586 1097.6666666666665 1592 1100.3333333333333 1598 1103 L 2359 1395 C 2365 1397.6666666666665 2371 1400.3333333333333 2377 1403 L 2501 1455" id="v-1781" fill="none" style="cursor: auto; pointer-events: visiblepainted;"></path><g ><g id="v-1774"  label-idx="0" cursor="move" transform="matrix(1,0,0,1,1970.4466552734375,1245.909912109375)" style="cursor: default; opacity: 1;"><rect joint-selector="rect" id="v-1777" fill="#111111" rx="3" ry="3" pointer-events="none" width="98.3392333984375" height="35.8289794921875" transform="matrix(1,0,0,1,-49.1,-17.9)"></rect><text joint-selector="text" id="v-1776" font-size="24px" xml:space="preserve" y="0.8em" fill="#cccccc" text-anchor="middle" pointer-events="none" font-family="Open Sans, Tahoma, Arial" font-weight="normal" transform="matrix(1,0,0,1,0,-10.2)"><tspan dy="0" >Consulta</tspan></text></g><g id="v-1775"  label-idx="1" cursor="move" transform="matrix(1,0,0,1,1960.4466552734375,1257.909912109375)" style="cursor: default; opacity: 1;"><rect joint-selector="rect" id="v-1779" fill="#ffffff" rx="3" ry="3"  width="0" height="0" transform="matrix(1,0,0,1,0,0)" display="none"></rect><text joint-selector="text" id="v-1778" fill="#000000" font-size="14" text-anchor="middle" pointer-events="none"></text></g></g><g  display="none" style="display: none;"><g  transform="translate(1589, 1099)" id="v-1770"><circle  idx="0" r="10"></circle><path  idx="0" d="M16,5.333c-7.732,0-14,4.701-14,10.5c0,1.982,0.741,3.833,2.016,5.414L2,25.667l5.613-1.441c2.339,1.317,5.237,2.107,8.387,2.107c7.732,0,14-4.701,14-10.5C30,10.034,23.732,5.333,16,5.333z" transform="translate(5, -33)"></path><path  idx="0" transform="scale(.8) translate(9.5, -37)" d="M24.778,21.419 19.276,15.917 24.777,10.415 21.949,7.585 16.447,13.087 10.945,7.585 8.117,10.415 13.618,15.917 8.116,21.419 10.946,24.248 16.447,18.746 21.948,24.248z"><title>Remove vertex.</title></path></g><g  transform="translate(2368, 1399)" id="v-1771"><circle  idx="1" r="10"></circle><path  idx="1" d="M16,5.333c-7.732,0-14,4.701-14,10.5c0,1.982,0.741,3.833,2.016,5.414L2,25.667l5.613-1.441c2.339,1.317,5.237,2.107,8.387,2.107c7.732,0,14-4.701,14-10.5C30,10.034,23.732,5.333,16,5.333z" transform="translate(5, -33)"></path><path  idx="1" transform="scale(.8) translate(9.5, -37)" d="M24.778,21.419 19.276,15.917 24.777,10.415 21.949,7.585 16.447,13.087 10.945,7.585 8.117,10.415 13.618,15.917 8.116,21.419 10.946,24.248 16.447,18.746 21.948,24.248z"><title>Remove vertex.</title></path></g></g><g  id="v-1784" display="none"><g  id="v-1772"><path  end="source" d="M 26 0 L 0 13 L 26 26 z"></path></g><g  id="v-1773"><path  end="target" d="M 26 0 L 0 13 L 26 26 z"></path></g></g><g  id="v-1783" display="none"><g  id="v-1769" transform="translate(1476.1753225311058, 1053.7646671045527) "><g  event="remove"><circle r="11"></circle><path transform="scale(.8) translate(-16, -16)" d="M24.778,21.419 19.276,15.917 24.777,10.415 21.949,7.585 16.447,13.087 10.945,7.585 8.117,10.415 13.618,15.917 8.116,21.419 10.946,24.248 16.447,18.746 21.948,24.248z"></path><title>Remove link.</title></g><g  event="link:options"><circle r="11" transform="translate(25)"></circle><path fill="white" transform="scale(.55) translate(29, -16)" d="M31.229,17.736c0.064-0.571,0.104-1.148,0.104-1.736s-0.04-1.166-0.104-1.737l-4.377-1.557c-0.218-0.716-0.504-1.401-0.851-2.05l1.993-4.192c-0.725-0.91-1.549-1.734-2.458-2.459l-4.193,1.994c-0.647-0.347-1.334-0.632-2.049-0.849l-1.558-4.378C17.165,0.708,16.588,0.667,16,0.667s-1.166,0.041-1.737,0.105L12.707,5.15c-0.716,0.217-1.401,0.502-2.05,0.849L6.464,4.005C5.554,4.73,4.73,5.554,4.005,6.464l1.994,4.192c-0.347,0.648-0.632,1.334-0.849,2.05l-4.378,1.557C0.708,14.834,0.667,15.412,0.667,16s0.041,1.165,0.105,1.736l4.378,1.558c0.217,0.715,0.502,1.401,0.849,2.049l-1.994,4.193c0.725,0.909,1.549,1.733,2.459,2.458l4.192-1.993c0.648,0.347,1.334,0.633,2.05,0.851l1.557,4.377c0.571,0.064,1.148,0.104,1.737,0.104c0.588,0,1.165-0.04,1.736-0.104l1.558-4.377c0.715-0.218,1.399-0.504,2.049-0.851l4.193,1.993c0.909-0.725,1.733-1.549,2.458-2.458l-1.993-4.193c0.347-0.647,0.633-1.334,0.851-2.049L31.229,17.736zM16,20.871c-2.69,0-4.872-2.182-4.872-4.871c0-2.69,2.182-4.872,4.872-4.872c2.689,0,4.871,2.182,4.871,4.872C20.871,18.689,18.689,20.871,16,20.871z"></path><title>Link options.</title></g></g></g></g><!--z-index:52--><g   id="j_153" ><path  stroke="#cccccc" d="M 2189 1038 L 3251 1460" id="v-1794" stroke-width="2" stroke-dasharray="8 8" fill="none" style="opacity: 1;"></path><path  fill="black" stroke="black" d="M 0 0 0 0" transform="matrix(0.929493284895741,0.36883903444961563,-0.36883903444961563,0.929493284895741,2189,1038.2900390625)"></path><path  fill="#cccccc" stroke="#cccccc" d="M 20 0 L 0 10 L 20 20 z" id="v-1796" transform="matrix(-0.9294932357818445,-0.36883915821913,0.36883915821913,-0.9294932357818445,3247.3116189006273,1469.0049303853223)" style="opacity: 1;"></path><path  d="M 2189 1038 L 3251 1460" id="v-1795" fill="none" style="cursor: auto; pointer-events: visiblepainted;"></path><g ><g id="v-1788"  label-idx="0" cursor="move" transform="matrix(1,0,0,1,2720,1249)" style="cursor: default; opacity: 1;"><rect joint-selector="rect" id="v-1791" fill="#111111" rx="3" ry="3" pointer-events="none" width="98.3392333984375" height="35.8289794921875" transform="matrix(1,0,0,1,-49.1,-17.9)"></rect><text joint-selector="text" id="v-1790" font-size="24px" xml:space="preserve" y="0.8em" fill="#cccccc" text-anchor="middle" pointer-events="none" font-family="Open Sans, Tahoma, Arial" font-weight="normal" transform="matrix(1,0,0,1,0,-10.2)"><tspan dy="0" >Consulta</tspan></text></g><g id="v-1789"  label-idx="1" cursor="move" transform="matrix(1,0,0,1,2710,1261)" style="cursor: default; opacity: 1;"><rect joint-selector="rect" id="v-1793" fill="#ffffff" rx="3" ry="3"  width="0" height="0" transform="matrix(1,0,0,1,0,0)" display="none"></rect><text joint-selector="text" id="v-1792" fill="#000000" font-size="14" text-anchor="middle" pointer-events="none"></text></g></g><g  display="none" style="display: none;"></g><g  id="v-1798" display="none"><g  id="v-1786"><path  end="source" d="M 26 0 L 0 13 L 26 26 z"></path></g><g  id="v-1787"><path  end="target" d="M 26 0 L 0 13 L 26 26 z"></path></g></g><g  id="v-1797" display="none"><g  id="v-1785" transform="translate(2226.172767150849, 1052.7710995646498) "><g  event="remove"><circle r="11"></circle><path transform="scale(.8) translate(-16, -16)" d="M24.778,21.419 19.276,15.917 24.777,10.415 21.949,7.585 16.447,13.087 10.945,7.585 8.117,10.415 13.618,15.917 8.116,21.419 10.946,24.248 16.447,18.746 21.948,24.248z"></path><title>Remove link.</title></g><g  event="link:options"><circle r="11" transform="translate(25)"></circle><path fill="white" transform="scale(.55) translate(29, -16)" d="M31.229,17.736c0.064-0.571,0.104-1.148,0.104-1.736s-0.04-1.166-0.104-1.737l-4.377-1.557c-0.218-0.716-0.504-1.401-0.851-2.05l1.993-4.192c-0.725-0.91-1.549-1.734-2.458-2.459l-4.193,1.994c-0.647-0.347-1.334-0.632-2.049-0.849l-1.558-4.378C17.165,0.708,16.588,0.667,16,0.667s-1.166,0.041-1.737,0.105L12.707,5.15c-0.716,0.217-1.401,0.502-2.05,0.849L6.464,4.005C5.554,4.73,4.73,5.554,4.005,6.464l1.994,4.192c-0.347,0.648-0.632,1.334-0.849,2.05l-4.378,1.557C0.708,14.834,0.667,15.412,0.667,16s0.041,1.165,0.105,1.736l4.378,1.558c0.217,0.715,0.502,1.401,0.849,2.049l-1.994,4.193c0.725,0.909,1.549,1.733,2.459,2.458l4.192-1.993c0.648,0.347,1.334,0.633,2.05,0.851l1.557,4.377c0.571,0.064,1.148,0.104,1.737,0.104c0.588,0,1.165-0.04,1.736-0.104l1.558-4.377c0.715-0.218,1.399-0.504,2.049-0.851l4.193,1.993c0.909-0.725,1.733-1.549,2.458-2.458l-1.993-4.193c0.347-0.647,0.633-1.334,0.851-2.049L31.229,17.736zM16,20.871c-2.69,0-4.872-2.182-4.872-4.871c0-2.69,2.182-4.872,4.872-4.872c2.689,0,4.871,2.182,4.871,4.872C20.871,18.689,18.689,20.871,16,20.871z"></path><title>Link options.</title></g></g></g></g><!--z-index:53--><g   id="j_154" ><path  stroke="#cccccc" d="M 1214 1699 L 1214 1999" id="v-1808" stroke-width="2" stroke-dasharray="8 8" fill="none" style="opacity: 1;"></path><path  fill="black" stroke="black" d="M 0 0 0 0" transform="matrix(6.123233995736766e-17,1,-1,6.123233995736766e-17,1214,1699)"></path><path  fill="#cccccc" stroke="#cccccc" d="M 20 0 L 0 10 L 20 20 z" id="v-1810" transform="matrix(-1.8369701987210297e-16,-1,1,-1.8369701987210297e-16,1204,1999)" style="opacity: 1;"></path><path  d="M 1214 1699 L 1214 1999" id="v-1809" fill="none" style="cursor: auto; pointer-events: visiblepainted;"></path><g ><g id="v-1802"  label-idx="0" cursor="move" transform="matrix(1,0,0,1,1214,1849)" style="cursor: default; opacity: 1;"><rect joint-selector="rect" id="v-1805" fill="#111111" rx="3" ry="3" pointer-events="none" width="122.95217895507812" height="35.8289794921875" transform="matrix(1,0,0,1,-61.5,-17.9)"></rect><text joint-selector="text" id="v-1804" font-size="24px" xml:space="preserve" y="0.8em" fill="#cccccc" text-anchor="middle" pointer-events="none" font-family="Open Sans, Tahoma, Arial" font-weight="normal" transform="matrix(1,0,0,1,0,-10.2)"><tspan dy="0" >Persiste en</tspan></text></g><g id="v-1803"  label-idx="1" cursor="move" transform="matrix(1,0,0,1,1204,1861)" style="cursor: default; opacity: 1;"><rect joint-selector="rect" id="v-1807" fill="#ffffff" rx="3" ry="3"  width="0" height="0" transform="matrix(1,0,0,1,0,0)" display="none"></rect><text joint-selector="text" id="v-1806" fill="#000000" font-size="14" text-anchor="middle" pointer-events="none"></text></g></g><g  display="none" style="display: none;"></g><g  id="v-1812" display="none"><g  id="v-1800"><path  end="source" d="M 26 0 L 0 13 L 26 26 z"></path></g><g  id="v-1801"><path  end="target" d="M 26 0 L 0 13 L 26 26 z"></path></g></g><g  id="v-1811" display="none"><g  id="v-1799" transform="translate(1214, 1739) "><g  event="remove"><circle r="11"></circle><path transform="scale(.8) translate(-16, -16)" d="M24.778,21.419 19.276,15.917 24.777,10.415 21.949,7.585 16.447,13.087 10.945,7.585 8.117,10.415 13.618,15.917 8.116,21.419 10.946,24.248 16.447,18.746 21.948,24.248z"></path><title>Remove link.</title></g><g  event="link:options"><circle r="11" transform="translate(25)"></circle><path fill="white" transform="scale(.55) translate(29, -16)" d="M31.229,17.736c0.064-0.571,0.104-1.148,0.104-1.736s-0.04-1.166-0.104-1.737l-4.377-1.557c-0.218-0.716-0.504-1.401-0.851-2.05l1.993-4.192c-0.725-0.91-1.549-1.734-2.458-2.459l-4.193,1.994c-0.647-0.347-1.334-0.632-2.049-0.849l-1.558-4.378C17.165,0.708,16.588,0.667,16,0.667s-1.166,0.041-1.737,0.105L12.707,5.15c-0.716,0.217-1.401,0.502-2.05,0.849L6.464,4.005C5.554,4.73,4.73,5.554,4.005,6.464l1.994,4.192c-0.347,0.648-0.632,1.334-0.849,2.05l-4.378,1.557C0.708,14.834,0.667,15.412,0.667,16s0.041,1.165,0.105,1.736l4.378,1.558c0.217,0.715,0.502,1.401,0.849,2.049l-1.994,4.193c0.725,0.909,1.549,1.733,2.459,2.458l4.192-1.993c0.648,0.347,1.334,0.633,2.05,0.851l1.557,4.377c0.571,0.064,1.148,0.104,1.737,0.104c0.588,0,1.165-0.04,1.736-0.104l1.558-4.377c0.715-0.218,1.399-0.504,2.049-0.851l4.193,1.993c0.909-0.725,1.733-1.549,2.458-2.458l-1.993-4.193c0.347-0.647,0.633-1.334,0.851-2.049L31.229,17.736zM16,20.871c-2.69,0-4.872-2.182-4.872-4.871c0-2.69,2.182-4.872,4.872-4.872c2.689,0,4.871,2.182,4.871,4.872C20.871,18.689,18.689,20.871,16,20.871z"></path><title>Link options.</title></g></g></g></g><!--z-index:54--><!--z-index:55--><!--z-index:56--><!--z-index:57--><!--z-index:58--><!--z-index:59--><!--z-index:60--><!--z-index:61--><!--z-index:62--><!--z-index:63--><!--z-index:64--><!--z-index:65--><!--z-index:66--><!--z-index:67--><!--z-index:68--><!--z-index:69--><!--z-index:70--><!--z-index:71--><!--z-index:72--><!--z-index:73--><!--z-index:74--><!--z-index:75--><!--z-index:76--><!--z-index:77--><!--z-index:78--><!--z-index:79--><!--z-index:80--><!--z-index:81--><!--z-index:82--><!--z-index:83--><!--z-index:84--><!--z-index:85--><!--z-index:86--></g><g ></g><g ></g><g ></g></g></svg>